<?xml version="1.0" encoding="UTF-8"?><!DOCTYPE svg PUBLIC "-//W3C//DTD SVG 1.1//EN" "http://www.w3.org/Graphics/SVG/1.1/DTD/svg11.dtd"><svg xmlns="http://www.w3.org/2000/svg" xmlns:xlink="http://www.w3.org/1999/xlink" version="1.1" width="16" height="16" viewBox="0 0 16 16"><path fill="#444" d="M15 8.5c0 2.3-.8 4.5-2 6.2l.7.8c1.5-1.9 2.4-4.4 2.4-7 0-3.1-1.2-5.9-3.2-8l-.5 1C14 3.3 15 5.8 15 8.5z"/><path fill="#444" d="M11.8 2.4l-.5 1C12.4 4.8 13 6.6 13 8.5c0 1.7-.5 3.2-1.3 4.6l.7.8c1.1-1.5 1.7-3.4 1.7-5.4-.1-2.3-.9-4.4-2.3-6.1z"/><path fill="#444" d="M10.8 4.4l-.5 1.1c.5.9.8 1.9.8 3 0 1-.3 2-.7 2.9l.7.9c.6-1.1 1-2.4 1-3.7-.1-1.6-.5-3-1.3-4.2z"/><path fill="#444" d="M4 5H0v6h4l5 4V1z"/><metadata><rdf:RDF xmlns:rdf="http://www.w3.org/1999/02/22-rdf-syntax-ns#" xmlns:rdfs="http://www.w3.org/2000/01/rdf-schema#" xmlns:dc="http://purl.org/dc/elements/1.1/"><rdf:Description about="https://iconscout.com/legal#licenses" dc:title="volume,up" dc:description="volume,up" dc:publisher="Iconscout" dc:date="2017-09-19" dc:format="image/svg+xml" dc:language="en"><dc:creator><rdf:Bag><rdf:li>Vaadin Icons</rdf:li></rdf:Bag></dc:creator></rdf:Description></rdf:RDF></metadata></svg>